<!DOCTYPE svg PUBLIC "-//W3C//DTD SVG 1.1//EN" "http://www.w3.org/Graphics/SVG/1.1/DTD/svg11.dtd">
<!-- Uploaded to: SVG Repo, www.svgrepo.com, Transformed by: SVG Repo Mixer Tools -->
<svg height="256px" width="256px" version="1.1" id="_x32_" xmlns="http://www.w3.org/2000/svg" xmlns:xlink="http://www.w3.org/1999/xlink" viewBox="0 0 512 512" xml:space="preserve" fill="#ffffff">
<g id="SVGRepo_bgCarrier" stroke-width="0"/>
<g id="SVGRepo_tracerCarrier" stroke-linecap="round" stroke-linejoin="round"/>
<g id="SVGRepo_iconCarrier"> <style type="text/css"> .st0{fill:#ffffff;} </style> <g> <path class="st0" d="M256,0C160.798,0,83.644,77.155,83.644,172.356c0,97.162,48.158,117.862,101.386,182.495 C248.696,432.161,256,512,256,512s7.304-79.839,70.97-157.148c53.228-64.634,101.386-85.334,101.386-182.495 C428.356,77.155,351.202,0,256,0z M256,231.921c-32.897,0-59.564-26.668-59.564-59.564s26.668-59.564,59.564-59.564 c32.896,0,59.564,26.668,59.564,59.564S288.896,231.921,256,231.921z"/> </g> </g>
</svg>